<mxfile host="Electron" modified="2023-09-12T18:11:51.390Z" agent="Mozilla/5.0 (Macintosh; Intel Mac OS X 10_15_7) AppleWebKit/537.36 (KHTML, like Gecko) draw.io/21.6.8 Chrome/114.0.5735.289 Electron/25.5.0 Safari/537.36" etag="sd4QA3jHpDDNyPAz5HMW" version="21.6.8" type="device">
  <diagram name="Page-1" id="PUbhOBLwAxsONIC4mjg5">
    <mxGraphModel dx="2954" dy="1074" grid="1" gridSize="10" guides="1" tooltips="1" connect="1" arrows="1" fold="1" page="0" pageScale="1" pageWidth="850" pageHeight="1100" math="0" shadow="0">
      <root>
        <mxCell id="0" />
        <mxCell id="1" parent="0" />
        <mxCell id="CZnmdBV8Sf9Hk-xIZGao-2" value="Loop:&lt;br&gt;[for each .fif file]" style="shape=umlFrame;whiteSpace=wrap;html=1;width=110;height=40;boundedLbl=1;verticalAlign=middle;align=left;spacingLeft=5;dashed=1;dashPattern=1 1;" parent="1" vertex="1">
          <mxGeometry x="-1333" y="260" width="314" height="420" as="geometry" />
        </mxCell>
        <mxCell id="9iOVFMO985ibKQIA5yUQ-1" value="Loop:&lt;br&gt;[for each subject]" style="shape=umlFrame;whiteSpace=wrap;html=1;width=121;height=40;boundedLbl=1;verticalAlign=middle;align=left;spacingLeft=5;dashed=1;" parent="1" vertex="1">
          <mxGeometry x="-1351" y="90" width="350" height="600" as="geometry" />
        </mxCell>
        <mxCell id="z92k_c89T4PLz4YoD9Kb-3" value="" style="edgeStyle=orthogonalEdgeStyle;rounded=0;orthogonalLoop=1;jettySize=auto;html=1;" parent="1" source="z92k_c89T4PLz4YoD9Kb-1" target="z92k_c89T4PLz4YoD9Kb-2" edge="1">
          <mxGeometry relative="1" as="geometry" />
        </mxCell>
        <mxCell id="z92k_c89T4PLz4YoD9Kb-1" value="" style="shape=umlActor;verticalLabelPosition=bottom;verticalAlign=top;html=1;outlineConnect=0;fontSize=14;" parent="1" vertex="1">
          <mxGeometry x="-1655" y="20" width="30" height="60" as="geometry" />
        </mxCell>
        <mxCell id="z92k_c89T4PLz4YoD9Kb-11" style="edgeStyle=orthogonalEdgeStyle;rounded=0;orthogonalLoop=1;jettySize=auto;html=1;entryX=0;entryY=0.5;entryDx=0;entryDy=0;" parent="1" source="z92k_c89T4PLz4YoD9Kb-2" target="z92k_c89T4PLz4YoD9Kb-9" edge="1">
          <mxGeometry relative="1" as="geometry" />
        </mxCell>
        <mxCell id="z92k_c89T4PLz4YoD9Kb-39" style="edgeStyle=orthogonalEdgeStyle;rounded=0;orthogonalLoop=1;jettySize=auto;html=1;entryX=0;entryY=0.5;entryDx=0;entryDy=0;fontSize=11;jumpStyle=arc;jumpSize=11;" parent="1" source="z92k_c89T4PLz4YoD9Kb-2" target="z92k_c89T4PLz4YoD9Kb-37" edge="1">
          <mxGeometry relative="1" as="geometry">
            <Array as="points">
              <mxPoint x="-1620" y="370" />
            </Array>
          </mxGeometry>
        </mxCell>
        <mxCell id="z92k_c89T4PLz4YoD9Kb-40" style="edgeStyle=orthogonalEdgeStyle;rounded=0;orthogonalLoop=1;jettySize=auto;html=1;entryX=0;entryY=0.5;entryDx=0;entryDy=0;fontSize=11;jumpStyle=arc;jumpSize=11;" parent="1" source="z92k_c89T4PLz4YoD9Kb-2" target="z92k_c89T4PLz4YoD9Kb-38" edge="1">
          <mxGeometry relative="1" as="geometry">
            <Array as="points">
              <mxPoint x="-1650" y="551" />
            </Array>
          </mxGeometry>
        </mxCell>
        <mxCell id="z92k_c89T4PLz4YoD9Kb-2" value="Config file:&lt;br&gt;data directory path(s),&lt;br&gt;QC parameters" style="html=1;" parent="1" vertex="1">
          <mxGeometry x="-1710" y="157" width="140" height="50" as="geometry" />
        </mxCell>
        <mxCell id="z92k_c89T4PLz4YoD9Kb-4" value="User sets parameters &lt;br&gt;and data path(s)" style="text;html=1;align=center;verticalAlign=middle;resizable=0;points=[];autosize=1;strokeColor=none;fillColor=none;" parent="1" vertex="1">
          <mxGeometry x="-1648" y="97" width="140" height="40" as="geometry" />
        </mxCell>
        <mxCell id="z92k_c89T4PLz4YoD9Kb-10" value="" style="edgeStyle=orthogonalEdgeStyle;rounded=0;orthogonalLoop=1;jettySize=auto;html=1;" parent="1" source="z92k_c89T4PLz4YoD9Kb-5" target="z92k_c89T4PLz4YoD9Kb-7" edge="1">
          <mxGeometry relative="1" as="geometry" />
        </mxCell>
        <mxCell id="z92k_c89T4PLz4YoD9Kb-5" value="" style="ellipse;fillColor=strokeColor;" parent="1" vertex="1">
          <mxGeometry x="-1191" y="-20" width="30" height="30" as="geometry" />
        </mxCell>
        <mxCell id="z92k_c89T4PLz4YoD9Kb-6" value="" style="group;flipH=1;" parent="1" vertex="1" connectable="0">
          <mxGeometry x="-1306" y="142" width="250" height="90" as="geometry" />
        </mxCell>
        <mxCell id="z92k_c89T4PLz4YoD9Kb-7" value="IO interface (ANCP BIDS)&amp;nbsp;&lt;br&gt;creates derivative folder structure,&lt;br&gt;output list of specific data file paths (.fif)&amp;nbsp;" style="html=1;align=center;verticalAlign=middle;rounded=1;absoluteArcSize=1;arcSize=25;dashed=0;fontFamily=Helvetica;fontSize=12;whiteSpace=wrap;container=0;noLabel=0;imageAlign=center;" parent="z92k_c89T4PLz4YoD9Kb-6" vertex="1">
          <mxGeometry x="10" width="240" height="80" as="geometry" />
        </mxCell>
        <mxCell id="z92k_c89T4PLz4YoD9Kb-8" value="pinOut 2" style="fontStyle=0;labelPosition=center;verticalLabelPosition=bottom;align=center;verticalAlign=top;spacingLeft=2;fontFamily=Helvetica;fontSize=12;resizable=0;container=0;noLabel=1;" parent="z92k_c89T4PLz4YoD9Kb-6" vertex="1">
          <mxGeometry x="115" y="80" width="30" height="10" as="geometry" />
        </mxCell>
        <mxCell id="z92k_c89T4PLz4YoD9Kb-9" value="pinOut 1" style="fontStyle=0;labelPosition=right;verticalLabelPosition=middle;align=left;verticalAlign=middle;spacingLeft=2;fontFamily=Helvetica;fontSize=12;resizable=0;container=0;noLabel=1;" parent="z92k_c89T4PLz4YoD9Kb-6" vertex="1">
          <mxGeometry y="25" width="10" height="30" as="geometry" />
        </mxCell>
        <mxCell id="z92k_c89T4PLz4YoD9Kb-12" value="" style="group" parent="1" vertex="1" connectable="0">
          <mxGeometry x="-1296" y="320" width="306" height="350" as="geometry" />
        </mxCell>
        <mxCell id="z92k_c89T4PLz4YoD9Kb-13" value="Load, filter, epoch data.&lt;br&gt;Output filtered and unfiltered versions of raw&lt;br&gt;(unfiltered is required for muscle artifacts detection)&lt;i style=&quot;&quot;&gt;&lt;br&gt;&lt;b&gt;initial_processing()&lt;/b&gt;&lt;/i&gt;" style="html=1;align=center;verticalAlign=middle;rounded=1;absoluteArcSize=1;arcSize=25;dashed=0;fontFamily=Helvetica;fontSize=12;whiteSpace=wrap;container=0;noLabel=0;imageAlign=center;" parent="z92k_c89T4PLz4YoD9Kb-12" vertex="1">
          <mxGeometry y="10" width="240" height="80" as="geometry" />
        </mxCell>
        <mxCell id="z92k_c89T4PLz4YoD9Kb-14" value="pinOut 2" style="fontStyle=0;labelPosition=center;verticalLabelPosition=bottom;align=center;verticalAlign=top;spacingLeft=2;fontFamily=Helvetica;fontSize=12;resizable=0;container=0;noLabel=1;" parent="z92k_c89T4PLz4YoD9Kb-12" vertex="1">
          <mxGeometry x="105" y="90" width="30" height="10" as="geometry" />
        </mxCell>
        <mxCell id="z92k_c89T4PLz4YoD9Kb-15" value="pinIn 1" style="fontStyle=0;labelPosition=center;verticalLabelPosition=top;align=center;verticalAlign=bottom;spacingLeft=2;fontFamily=Helvetica;fontSize=12;resizable=0;container=0;noLabel=1;" parent="z92k_c89T4PLz4YoD9Kb-12" vertex="1">
          <mxGeometry x="105" width="30" height="10" as="geometry" />
        </mxCell>
        <mxCell id="z92k_c89T4PLz4YoD9Kb-16" value="" style="edgeStyle=orthogonalEdgeStyle;rounded=0;orthogonalLoop=1;jettySize=auto;html=1;" parent="1" source="z92k_c89T4PLz4YoD9Kb-8" target="z92k_c89T4PLz4YoD9Kb-15" edge="1">
          <mxGeometry relative="1" as="geometry" />
        </mxCell>
        <mxCell id="z92k_c89T4PLz4YoD9Kb-17" value="" style="group;dashed=1;dashPattern=1 1;" parent="1" vertex="1" connectable="0">
          <mxGeometry x="-1295" y="430" width="450" height="400" as="geometry" />
        </mxCell>
        <mxCell id="z92k_c89T4PLz4YoD9Kb-18" value="&lt;font style=&quot;font-size: 12px;&quot;&gt;Calculate MEG QC measurements:&lt;br&gt;&lt;/font&gt;&lt;ul style=&quot;border-color: var(--border-color); text-align: left; background-color: rgb(255, 255, 255);&quot;&gt;&lt;li style=&quot;border-color: var(--border-color);&quot;&gt;&lt;div style=&quot;line-height: 18px;&quot;&gt;&lt;font style=&quot;font-size: 12px;&quot;&gt;&lt;i style=&quot;&quot;&gt;&lt;b&gt;STD_meg_qc()&lt;/b&gt;&lt;/i&gt;&lt;/font&gt;&lt;/div&gt;&lt;/li&gt;&lt;li style=&quot;border-color: var(--border-color);&quot;&gt;&lt;font style=&quot;border-color: var(--border-color); font-size: 12px;&quot;&gt;&lt;i&gt;&lt;b&gt;PSD_meq_qc()&lt;/b&gt;&lt;/i&gt;&lt;/font&gt;&lt;/li&gt;&lt;li style=&quot;border-color: var(--border-color);&quot;&gt;&lt;font style=&quot;border-color: var(--border-color); font-size: 12px;&quot;&gt;&lt;i&gt;&lt;b&gt;PP_manual_meq_qc()&lt;/b&gt;&lt;/i&gt;&lt;/font&gt;&lt;/li&gt;&lt;li style=&quot;border-color: var(--border-color);&quot;&gt;&lt;font style=&quot;border-color: var(--border-color); font-size: 12px;&quot;&gt;&lt;i&gt;&lt;b&gt;PP_auto_meq_qc()&lt;/b&gt;&lt;/i&gt;&lt;/font&gt;&lt;/li&gt;&lt;li style=&quot;border-color: var(--border-color);&quot;&gt;&lt;font style=&quot;border-color: var(--border-color); font-size: 12px;&quot;&gt;&lt;i&gt;&lt;b&gt;ECG_meq_qc()&lt;/b&gt;&lt;/i&gt;&lt;/font&gt;&lt;/li&gt;&lt;li style=&quot;border-color: var(--border-color);&quot;&gt;&lt;font style=&quot;border-color: var(--border-color); font-size: 12px;&quot;&gt;&lt;i&gt;&lt;b&gt;EOG_meq_qc()&lt;/b&gt;&lt;/i&gt;&lt;/font&gt;&lt;/li&gt;&lt;li style=&quot;border-color: var(--border-color);&quot;&gt;&lt;div style=&quot;line-height: 18px;&quot;&gt;&lt;font style=&quot;font-size: 12px;&quot;&gt;&lt;i&gt;&lt;b&gt;HEAD_movement_meg_qc()&lt;/b&gt;&lt;/i&gt;&lt;/font&gt;&lt;/div&gt;&lt;/li&gt;&lt;li style=&quot;border-color: var(--border-color);&quot;&gt;&lt;font style=&quot;border-color: var(--border-color); font-size: 12px;&quot;&gt;&lt;i style=&quot;&quot;&gt;&lt;b&gt;MUSCLE_meq_qc()&lt;/b&gt;&lt;/i&gt;&lt;/font&gt;&lt;/li&gt;&lt;/ul&gt;&lt;font style=&quot;font-size: 12px;&quot;&gt;and output the derivatives as &lt;br&gt;QC_derivative objects&lt;/font&gt;" style="html=1;align=center;verticalAlign=middle;rounded=1;absoluteArcSize=1;arcSize=25;dashed=0;fontFamily=Helvetica;fontSize=12;whiteSpace=wrap;container=0;noLabel=0;imageAlign=center;" parent="z92k_c89T4PLz4YoD9Kb-17" vertex="1">
          <mxGeometry y="34.822954822954806" width="237.10843373493972" height="201.07448107448104" as="geometry" />
        </mxCell>
        <mxCell id="z92k_c89T4PLz4YoD9Kb-19" value="pinOut 2" style="fontStyle=0;labelPosition=center;verticalLabelPosition=bottom;align=center;verticalAlign=top;spacingLeft=2;fontFamily=Helvetica;fontSize=12;resizable=0;container=0;noLabel=1;" parent="z92k_c89T4PLz4YoD9Kb-17" vertex="1">
          <mxGeometry x="103.31999999999998" y="235.89743589743586" width="30" height="10" as="geometry" />
        </mxCell>
        <mxCell id="z92k_c89T4PLz4YoD9Kb-21" value="pinIn 1" style="fontStyle=0;labelPosition=center;verticalLabelPosition=top;align=center;verticalAlign=bottom;spacingLeft=2;fontFamily=Helvetica;fontSize=12;resizable=0;container=0;noLabel=1;" parent="z92k_c89T4PLz4YoD9Kb-17" vertex="1">
          <mxGeometry x="103.31999999999998" y="24.61538461538461" width="30" height="10" as="geometry" />
        </mxCell>
        <mxCell id="B64AVB3IwwociarqwsFF-1" value="Loop:&lt;br&gt;[for each data directory]" style="shape=umlFrame;whiteSpace=wrap;html=1;width=140;height=40;boundedLbl=1;verticalAlign=middle;align=left;spacingLeft=5;dashed=1;dashPattern=1 2;" parent="z92k_c89T4PLz4YoD9Kb-17" vertex="1">
          <mxGeometry x="-110" y="-400" width="550" height="800" as="geometry" />
        </mxCell>
        <mxCell id="z92k_c89T4PLz4YoD9Kb-23" value="" style="edgeStyle=orthogonalEdgeStyle;rounded=0;orthogonalLoop=1;jettySize=auto;html=1;fontSize=11;" parent="1" source="z92k_c89T4PLz4YoD9Kb-14" target="z92k_c89T4PLz4YoD9Kb-21" edge="1">
          <mxGeometry relative="1" as="geometry" />
        </mxCell>
        <mxCell id="z92k_c89T4PLz4YoD9Kb-28" value="" style="group;fontSize=11;flipH=1;" parent="1" vertex="1" connectable="0">
          <mxGeometry x="-1296" y="719.0000000000002" width="250" height="100" as="geometry" />
        </mxCell>
        <mxCell id="z92k_c89T4PLz4YoD9Kb-29" value="IO interface (ANCP BIDS)&amp;nbsp;&lt;br style=&quot;border-color: var(--border-color);&quot;&gt;writes derivatives back into data system&amp;nbsp;" style="html=1;align=center;verticalAlign=middle;rounded=1;absoluteArcSize=1;arcSize=25;dashed=0;fontFamily=Helvetica;fontSize=12;whiteSpace=wrap;container=0;noLabel=0;imageAlign=center;" parent="z92k_c89T4PLz4YoD9Kb-28" vertex="1">
          <mxGeometry y="10" width="240" height="80" as="geometry" />
        </mxCell>
        <mxCell id="z92k_c89T4PLz4YoD9Kb-31" value="pinIn 2" style="fontStyle=0;labelPosition=left;verticalLabelPosition=middle;align=right;verticalAlign=middle;spacingLeft=2;fontFamily=Helvetica;fontSize=12;flipH=0;resizable=0;container=0;noLabel=1;" parent="z92k_c89T4PLz4YoD9Kb-28" vertex="1">
          <mxGeometry x="240" y="35" width="10" height="30" as="geometry" />
        </mxCell>
        <mxCell id="z92k_c89T4PLz4YoD9Kb-32" value="pinIn 1" style="fontStyle=0;labelPosition=center;verticalLabelPosition=top;align=center;verticalAlign=bottom;spacingLeft=2;fontFamily=Helvetica;fontSize=12;resizable=0;container=0;noLabel=1;" parent="z92k_c89T4PLz4YoD9Kb-28" vertex="1">
          <mxGeometry x="105" width="30" height="10" as="geometry" />
        </mxCell>
        <mxCell id="z92k_c89T4PLz4YoD9Kb-33" value="" style="edgeStyle=orthogonalEdgeStyle;rounded=0;orthogonalLoop=1;jettySize=auto;html=1;fontSize=11;" parent="1" source="z92k_c89T4PLz4YoD9Kb-19" target="z92k_c89T4PLz4YoD9Kb-32" edge="1">
          <mxGeometry relative="1" as="geometry" />
        </mxCell>
        <mxCell id="z92k_c89T4PLz4YoD9Kb-37" value="pinIn 2" style="fontStyle=0;labelPosition=left;verticalLabelPosition=middle;align=right;verticalAlign=middle;spacingLeft=2;fontFamily=Helvetica;fontSize=12;flipH=0;resizable=0;container=0;noLabel=1;" parent="1" vertex="1">
          <mxGeometry x="-1306" y="355.0000000000002" width="10" height="30" as="geometry" />
        </mxCell>
        <mxCell id="z92k_c89T4PLz4YoD9Kb-38" value="pinIn 2" style="fontStyle=0;labelPosition=left;verticalLabelPosition=middle;align=right;verticalAlign=middle;spacingLeft=2;fontFamily=Helvetica;fontSize=12;flipH=0;resizable=0;container=0;noLabel=1;" parent="1" vertex="1">
          <mxGeometry x="-1305" y="536.0000000000002" width="10" height="30" as="geometry" />
        </mxCell>
        <mxCell id="z92k_c89T4PLz4YoD9Kb-41" value="passing data &lt;br&gt;directory path(s)&amp;nbsp;" style="text;html=1;align=center;verticalAlign=middle;resizable=0;points=[];autosize=1;strokeColor=none;fillColor=none;fontSize=11;" parent="1" vertex="1">
          <mxGeometry x="-1570" y="142" width="110" height="40" as="geometry" />
        </mxCell>
        <mxCell id="z92k_c89T4PLz4YoD9Kb-42" value="passing initial &lt;br&gt;processing parameters" style="text;html=1;align=center;verticalAlign=middle;resizable=0;points=[];autosize=1;strokeColor=none;fillColor=none;fontSize=11;" parent="1" vertex="1">
          <mxGeometry x="-1585" y="335" width="140" height="40" as="geometry" />
        </mxCell>
        <mxCell id="z92k_c89T4PLz4YoD9Kb-43" value="passing parameters &lt;br&gt;for each of QC metrics" style="text;html=1;align=center;verticalAlign=middle;resizable=0;points=[];autosize=1;strokeColor=none;fillColor=none;fontSize=11;" parent="1" vertex="1">
          <mxGeometry x="-1580" y="505" width="130" height="40" as="geometry" />
        </mxCell>
        <mxCell id="z92k_c89T4PLz4YoD9Kb-45" value="" style="edgeStyle=orthogonalEdgeStyle;rounded=0;orthogonalLoop=1;jettySize=auto;html=1;fontSize=11;exitX=0.5;exitY=1;exitDx=0;exitDy=0;" parent="1" source="z92k_c89T4PLz4YoD9Kb-29" edge="1">
          <mxGeometry relative="1" as="geometry">
            <mxPoint x="-1176" y="819.0000000000002" as="sourcePoint" />
            <mxPoint x="-1176" y="860" as="targetPoint" />
          </mxGeometry>
        </mxCell>
        <mxCell id="z92k_c89T4PLz4YoD9Kb-46" value="Derivatives: &lt;br&gt;HTML report, &lt;br&gt;JSON, TSV files&amp;nbsp;" style="html=1;fontSize=11;" parent="1" vertex="1">
          <mxGeometry x="-978" y="744" width="110" height="50" as="geometry" />
        </mxCell>
        <mxCell id="z92k_c89T4PLz4YoD9Kb-47" value="" style="edgeStyle=orthogonalEdgeStyle;rounded=0;orthogonalLoop=1;jettySize=auto;html=1;fontSize=11;" parent="1" source="z92k_c89T4PLz4YoD9Kb-31" target="z92k_c89T4PLz4YoD9Kb-46" edge="1">
          <mxGeometry relative="1" as="geometry" />
        </mxCell>
        <mxCell id="z92k_c89T4PLz4YoD9Kb-48" value="&lt;font style=&quot;font-size: 18px;&quot;&gt;Main MEG QC pipeline&amp;nbsp;&lt;br&gt;&lt;b&gt;&lt;i&gt;make_derivative_meg_qc()&amp;nbsp;&lt;/i&gt;&lt;/b&gt;&lt;/font&gt;" style="text;html=1;align=center;verticalAlign=middle;resizable=0;points=[];autosize=1;strokeColor=none;fillColor=none;fontSize=11;" parent="1" vertex="1">
          <mxGeometry x="-1302" y="-100" width="260" height="60" as="geometry" />
        </mxCell>
        <mxCell id="LrJdc65StuMU2UIHShSl-1" value="&lt;font style=&quot;font-size: 11px;&quot;&gt;Each metrict can be included/excluded &lt;br&gt;from the analysis by the user in config file&lt;/font&gt;" style="text;html=1;align=center;verticalAlign=middle;resizable=0;points=[];autosize=1;strokeColor=none;fillColor=none;" parent="1" vertex="1">
          <mxGeometry x="-1630" y="560" width="230" height="40" as="geometry" />
        </mxCell>
        <mxCell id="gJO7JIBL_jriJ2bUjoK9-1" value="" style="ellipse;html=1;shape=endState;fillColor=strokeColor;" parent="1" vertex="1">
          <mxGeometry x="-1191" y="860" width="30" height="30" as="geometry" />
        </mxCell>
      </root>
    </mxGraphModel>
  </diagram>
</mxfile>
